<svg xmlns="http://www.w3.org/2000/svg" width="12" height="12" viewBox="0 0 12 12">
    <g fill="none" fill-rule="evenodd">
        <circle cx="6" cy="6" r="5.5" fill="#FFC528" fill-rule="nonzero" stroke="#FF8929"/>
        <path fill="#FF8929" d="M6.58 9.745C4.543 9.745 3 8.393 3 5.903 3 3.442 4.593 2 6.58 2c1.079 0 1.825.464 2.31.958l-.798.948c-.363-.353-.786-.625-1.462-.625-1.24 0-2.107.968-2.107 2.571 0 1.624.746 2.602 2.208 2.602.363 0 .726-.101.938-.283V6.7H6.348V5.48H9v3.368c-.504.494-1.382.898-2.42.898z"/>
    </g>
</svg>
